<svg width="140" height="38" viewBox="0 0 140 38" fill="none" xmlns="http://www.w3.org/2000/svg"><path d="M11.92 29.8c-3.44 0-6.133-.867-8.08-2.6C1.893 25.44.92 22.987.92 19.84H7.4c0 1.52.4 2.707 1.2 3.56.827.853 1.947 1.28 3.36 1.28 1.2 0 2.12-.267 2.76-.8.667-.533 1-1.293 1-2.28 0-.853-.253-1.533-.76-2.04-.48-.533-1.36-1.053-2.64-1.56l-5.04-1.96C3.493 14.627 1.6 12.08 1.6 8.4c0-2.48.893-4.467 2.68-5.96C6.093.947 8.52.2 11.56.2c3.093 0 5.573.813 7.44 2.44 1.867 1.6 2.8 3.747 2.8 6.44h-6.48c0-1.307-.333-2.307-1-3-.667-.693-1.627-1.04-2.88-1.04-1.04 0-1.867.253-2.48.76-.587.48-.88 1.147-.88 2 0 .773.293 1.44.88 2 .587.533 1.573 1.08 2.96 1.64l4.64 1.84c3.76 1.467 5.64 4.093 5.64 7.88 0 2.613-.947 4.707-2.84 6.28-1.867 1.573-4.347 2.36-7.44 2.36Zm33.562-.8h-7.48l-6.12-8.36V29h-6.12V1h6.12v16.76l6.28-8.04h7.2l-7.68 9.12 7.8 10.16ZM61.185 9.72h6.12V28.4c0 2.987-.92 5.307-2.76 6.96-1.733 1.493-4.093 2.24-7.08 2.24-3.12 0-5.493-.667-7.12-2-1.573-1.333-2.373-3.027-2.4-5.08h6.16c.133 1.733 1.253 2.6 3.36 2.6 2.48 0 3.72-1.44 3.72-4.32v-3c-1.12 2.133-3.16 3.2-6.12 3.2-2.373 0-4.16-.72-5.36-2.16-1.173-1.44-1.76-3.413-1.76-5.92V9.72h6.12V20c0 2.773 1.133 4.16 3.4 4.16 1.2 0 2.12-.427 2.76-1.28.64-.88.96-2.08.96-3.6V9.72Zm23.579-.52c2.64 0 4.773.933 6.4 2.8 1.653 1.867 2.48 4.32 2.48 7.36 0 3.013-.84 5.467-2.52 7.36-1.68 1.867-3.854 2.8-6.52 2.8-1.387 0-2.627-.307-3.72-.92-1.094-.613-1.894-1.387-2.4-2.32V29h-6.12V.96h6.12v11.52c.506-.96 1.333-1.747 2.48-2.36 1.146-.613 2.413-.92 3.8-.92Zm-1.92 15.24c1.333 0 2.426-.467 3.28-1.4.853-.96 1.28-2.187 1.28-3.68 0-1.493-.427-2.707-1.28-3.64-.854-.933-1.947-1.4-3.28-1.4-1.387 0-2.507.467-3.36 1.4-.854.933-1.28 2.147-1.28 3.64 0 1.52.426 2.747 1.28 3.68.88.933 2 1.4 3.36 1.4Zm31.558 2.28c-1.92 1.92-4.507 2.88-7.76 2.88s-5.853-.96-7.8-2.88-2.92-4.373-2.92-7.36.973-5.427 2.92-7.32c1.947-1.92 4.547-2.88 7.8-2.88s5.84.96 7.76 2.88c1.947 1.893 2.92 4.333 2.92 7.32s-.973 5.44-2.92 7.36Zm-7.76-2.32c1.413 0 2.533-.467 3.36-1.4.827-.933 1.24-2.147 1.24-3.64 0-1.493-.413-2.707-1.24-3.64-.827-.933-1.947-1.4-3.36-1.4-1.44 0-2.573.467-3.4 1.4-.8.933-1.2 2.147-1.2 3.64 0 1.493.4 2.707 1.2 3.64.827.933 1.96 1.4 3.4 1.4Zm10.866 4.6 7.04-9.72-6.92-9.56h7.32l3.32 5.6 3.36-5.6h7.32l-6.92 9.56 7.04 9.72h-7.32l-3.48-5.76-3.44 5.76h-7.32Z" fill="url(#a)"/><defs><linearGradient id="a" x1="0" y1="-7" x2="140" y2="39" gradientUnits="userSpaceOnUse"><stop stop-color="#197DF1"/><stop offset="1" stop-color="#BA66BD"/></linearGradient></defs></svg>