<svg width="727" height="101" viewBox="0 0 727 101" fill="none" xmlns="http://www.w3.org/2000/svg"><path d="m22.896 35-1.152-4.08H9.84L8.688 35H.48L11.856 1.4h7.824L31.104 35h-8.208ZM11.568 24.824h8.448L15.792 9.896l-4.224 14.928ZM34.618 35V1.4h7.344V35h-7.344Zm18.878 0-8.352-23.136h7.68L57 25.88l3.936-14.016h7.152l3.936 14.016L76.2 11.864h7.632L75.528 35h-6.576l-4.464-14.064L60.072 35h-6.576Zm41.853.624c-3.36 0-6.016-1.136-7.968-3.408-1.952-2.272-2.928-5.2-2.928-8.784 0-3.52 1.008-6.432 3.024-8.736 2.016-2.304 4.672-3.456 7.968-3.456 1.632 0 3.088.352 4.368 1.056 1.28.704 2.24 1.664 2.88 2.88v-3.312h7.296V35h-7.296v-3.264c-.64 1.152-1.632 2.096-2.976 2.832-1.312.704-2.768 1.056-4.368 1.056Zm2.112-6.096c1.76 0 3.12-.576 4.08-1.728.96-1.152 1.44-2.608 1.44-4.368 0-1.728-.48-3.168-1.44-4.32-.96-1.152-2.32-1.728-4.08-1.728-1.664 0-3.008.56-4.032 1.68-.992 1.12-1.488 2.576-1.488 4.368 0 1.792.496 3.264 1.488 4.416 1.024 1.12 2.368 1.68 4.032 1.68Zm34.274-17.664h7.344V34.28c0 3.584-1.104 6.368-3.312 8.352-2.08 1.792-4.912 2.688-8.496 2.688-3.744 0-6.592-.8-8.544-2.4-1.888-1.6-2.848-3.632-2.88-6.096h7.392c.16 2.08 1.504 3.12 4.032 3.12 2.976 0 4.464-1.728 4.464-5.184v-3.6c-1.344 2.56-3.792 3.84-7.344 3.84-2.848 0-4.992-.864-6.432-2.592-1.408-1.728-2.112-4.096-2.112-7.104v-13.44h7.344V24.2c0 3.328 1.36 4.992 4.08 4.992 1.44 0 2.544-.512 3.312-1.536.768-1.056 1.152-2.496 1.152-4.32V11.864Zm22.678 23.856c-3.328 0-5.984-.72-7.968-2.16-1.984-1.44-2.976-3.28-2.976-5.52h7.296c0 .8.352 1.456 1.056 1.968.704.512 1.616.768 2.736.768.8 0 1.44-.192 1.92-.576.512-.384.768-.912.768-1.584 0-1.056-.56-1.712-1.68-1.968l-5.664-1.44c-1.888-.48-3.328-1.296-4.32-2.448-.992-1.152-1.488-2.56-1.488-4.224 0-2.176.896-3.936 2.688-5.28 1.792-1.376 4.192-2.064 7.2-2.064 3.328 0 5.872.64 7.632 1.92 1.792 1.28 2.688 3.04 2.688 5.28h-7.248c0-.8-.288-1.424-.864-1.872-.544-.448-1.312-.672-2.304-.672-.8 0-1.44.176-1.92.528-.48.352-.72.816-.72 1.392 0 1.024.656 1.712 1.968 2.064l5.472 1.488c1.824.48 3.248 1.28 4.272 2.4 1.056 1.088 1.584 2.432 1.584 4.032 0 2.4-.912 4.336-2.736 5.808-1.792 1.44-4.256 2.16-7.392 2.16Zm42.921-23.856h7.344v21.552c0 4.48-1.488 7.76-4.464 9.84-1.952 1.376-4.704 2.064-8.256 2.064-3.488 0-6.272-.624-8.352-1.872a9.513 9.513 0 0 1-2.928-2.832c-.768-1.152-1.168-2.352-1.2-3.6h7.488c.352 1.952 1.984 2.928 4.896 2.928 3.648 0 5.472-1.872 5.472-5.616v-3.072c-.576 1.12-1.552 2.032-2.928 2.736a9.527 9.527 0 0 1-4.32 1.008c-3.36 0-6.032-1.088-8.016-3.264-1.984-2.208-2.976-5.056-2.976-8.544 0-3.456 1.024-6.304 3.072-8.544 2.048-2.272 4.72-3.408 8.016-3.408 1.6 0 3.04.368 4.32 1.104 1.312.704 2.256 1.648 2.832 2.832v-3.312Zm-5.232 17.472c1.696 0 3.04-.576 4.032-1.728 1.024-1.152 1.536-2.592 1.536-4.32 0-1.728-.512-3.168-1.536-4.32-.992-1.152-2.336-1.728-4.032-1.728-1.632 0-2.96.576-3.984 1.728-.992 1.12-1.488 2.56-1.488 4.32 0 1.76.496 3.216 1.488 4.368 1.024 1.12 2.352 1.68 3.984 1.68Zm41.377-7.104c0 .96-.064 2.032-.192 3.216h-17.088c.064 1.504.576 2.672 1.536 3.504.96.832 2.256 1.248 3.888 1.248 2.24 0 3.68-.72 4.32-2.16h7.2c-.352 2.272-1.6 4.128-3.744 5.568-2.112 1.408-4.704 2.112-7.776 2.112-3.936 0-7.04-1.088-9.312-3.264-2.272-2.176-3.408-5.184-3.408-9.024 0-3.776 1.136-6.752 3.408-8.928 2.272-2.208 5.296-3.312 9.072-3.312 3.584 0 6.496 1.024 8.736 3.072s3.36 4.704 3.36 7.968Zm-17.28-1.344h10.032c-.032-1.536-.464-2.72-1.296-3.552-.832-.832-2.032-1.248-3.6-1.248s-2.816.448-3.744 1.344c-.896.864-1.36 2.016-1.392 3.456Zm33.532 8.4c1.024 0 1.872-.048 2.544-.144V35c-1.408.256-3.04.384-4.896.384-.832 0-1.568-.048-2.208-.144-.64-.096-1.36-.304-2.16-.624-.8-.352-1.456-.816-1.968-1.392s-.96-1.408-1.344-2.496c-.352-1.088-.528-2.368-.528-3.84v-9.216h-3.648v-5.808h3.648V5h7.344v6.864h5.232v5.808h-5.232v7.68c0 1.568.272 2.624.816 3.168.544.512 1.344.768 2.4.768Zm30.562 0c1.024 0 1.872-.048 2.544-.144V35c-1.408.256-3.04.384-4.896.384-.832 0-1.568-.048-2.208-.144-.64-.096-1.36-.304-2.16-.624-.8-.352-1.456-.816-1.968-1.392s-.96-1.408-1.344-2.496c-.352-1.088-.528-2.368-.528-3.84v-9.216h-3.648v-5.808h3.648V5h7.344v6.864h5.232v5.808h-5.232v7.68c0 1.568.272 2.624.816 3.168.544.512 1.344.768 2.4.768Zm21.579-18.048c5.632 0 8.448 3.152 8.448 9.456V35h-7.392V23.096c0-1.984-.32-3.424-.96-4.32-.608-.896-1.648-1.344-3.12-1.344-2.976 0-4.464 1.824-4.464 5.472V35h-7.344V1.4h7.344v13.824c1.376-2.656 3.872-3.984 7.488-3.984Zm37.076 10.992c0 .96-.064 2.032-.192 3.216h-17.088c.064 1.504.576 2.672 1.536 3.504.96.832 2.256 1.248 3.888 1.248 2.24 0 3.68-.72 4.32-2.16h7.2c-.352 2.272-1.6 4.128-3.744 5.568-2.112 1.408-4.704 2.112-7.776 2.112-3.936 0-7.04-1.088-9.312-3.264-2.272-2.176-3.408-5.184-3.408-9.024 0-3.776 1.136-6.752 3.408-8.928 2.272-2.208 5.296-3.312 9.072-3.312 3.584 0 6.496 1.024 8.736 3.072s3.36 4.704 3.36 7.968Zm-17.28-1.344H331.7c-.032-1.536-.464-2.72-1.296-3.552-.832-.832-2.032-1.248-3.6-1.248s-2.816.448-3.744 1.344c-.896.864-1.36 2.016-1.392 3.456Zm45.777-14.304c-2.24 0-3.36.976-3.36 2.928v2.352h5.376v5.808h-5.376V35h-7.344V17.672h-4.128v-5.808h4.128V9.608c0-1.696.272-3.136.816-4.32.544-1.216 1.264-2.112 2.16-2.688.896-.576 1.792-.992 2.688-1.248a10.26 10.26 0 0 1 2.832-.384c1.696 0 3.104.176 4.224.528v5.232c-.16 0-.48-.016-.96-.048a7.937 7.937 0 0 0-1.056-.096ZM373.102 35V11.864h7.344v4.848c.384-1.664 1.168-2.944 2.352-3.84 1.216-.928 2.56-1.392 4.032-1.392.768 0 1.408.064 1.92.192v6.816c-.864-.096-1.6-.144-2.208-.144-4.064 0-6.096 2.576-6.096 7.728V35h-7.344Zm39.805-2.736c-2.304 2.304-5.408 3.456-9.312 3.456-3.904 0-7.024-1.152-9.36-3.456-2.336-2.304-3.504-5.248-3.504-8.832 0-3.584 1.168-6.512 3.504-8.784 2.336-2.304 5.456-3.456 9.36-3.456 3.904 0 7.008 1.152 9.312 3.456 2.336 2.272 3.504 5.2 3.504 8.784 0 3.584-1.168 6.528-3.504 8.832Zm-9.312-2.784c1.696 0 3.04-.56 4.032-1.68.992-1.12 1.488-2.576 1.488-4.368 0-1.792-.496-3.248-1.488-4.368s-2.336-1.68-4.032-1.68c-1.728 0-3.088.56-4.08 1.68-.96 1.12-1.44 2.576-1.44 4.368 0 1.792.48 3.248 1.44 4.368.992 1.12 2.352 1.68 4.08 1.68ZM420.633 35V11.864h7.344v3.36c1.376-2.656 3.872-3.984 7.488-3.984 5.632 0 8.448 3.152 8.448 9.456V35h-7.392V23.096c0-1.984-.32-3.424-.96-4.32-.608-.896-1.648-1.344-3.12-1.344-2.976 0-4.464 1.824-4.464 5.472V35h-7.344Zm40.879-5.712c1.024 0 1.872-.048 2.544-.144V35c-1.408.256-3.04.384-4.896.384-.832 0-1.568-.048-2.208-.144-.64-.096-1.36-.304-2.16-.624-.8-.352-1.456-.816-1.968-1.392s-.96-1.408-1.344-2.496c-.352-1.088-.528-2.368-.528-3.84v-9.216h-3.648v-5.808h3.648V5h7.344v6.864h5.232v5.808h-5.232v7.68c0 1.568.272 2.624.816 3.168.544.512 1.344.768 2.4.768ZM479.93 35V11.864h7.344v4.848c.384-1.664 1.168-2.944 2.352-3.84 1.216-.928 2.56-1.392 4.032-1.392.768 0 1.408.064 1.92.192v6.816c-.864-.096-1.6-.144-2.208-.144-4.064 0-6.096 2.576-6.096 7.728V35h-7.344Zm39.805-2.736c-2.304 2.304-5.408 3.456-9.312 3.456-3.904 0-7.024-1.152-9.36-3.456-2.336-2.304-3.504-5.248-3.504-8.832 0-3.584 1.168-6.512 3.504-8.784 2.336-2.304 5.456-3.456 9.36-3.456 3.904 0 7.008 1.152 9.312 3.456 2.336 2.272 3.504 5.2 3.504 8.784 0 3.584-1.168 6.528-3.504 8.832Zm-9.312-2.784c1.696 0 3.04-.56 4.032-1.68.992-1.12 1.488-2.576 1.488-4.368 0-1.792-.496-3.248-1.488-4.368s-2.336-1.68-4.032-1.68c-1.728 0-3.088.56-4.08 1.68-.96 1.12-1.44 2.576-1.44 4.368 0 1.792.48 3.248 1.44 4.368.992 1.12 2.352 1.68 4.08 1.68ZM531.996 35l-8.352-23.136h7.68L535.5 25.88l3.936-14.016h7.152l3.936 14.016 4.176-14.016h7.632L554.028 35h-6.576l-4.464-14.064L538.572 35h-6.576Zm57.391-5.712c1.024 0 1.872-.048 2.544-.144V35c-1.408.256-3.04.384-4.896.384-.832 0-1.568-.048-2.208-.144-.64-.096-1.36-.304-2.16-.624-.8-.352-1.456-.816-1.968-1.392s-.96-1.408-1.344-2.496c-.352-1.088-.528-2.368-.528-3.84v-9.216h-3.648v-5.808h3.648V5h7.344v6.864h5.232v5.808h-5.232v7.68c0 1.568.272 2.624.816 3.168.544.512 1.344.768 2.4.768Zm13.706-20.784c-.864.864-1.952 1.296-3.264 1.296-1.312 0-2.4-.432-3.264-1.296-.832-.864-1.248-1.92-1.248-3.168 0-1.28.416-2.352 1.248-3.216.864-.864 1.952-1.296 3.264-1.296 1.312 0 2.4.448 3.264 1.344.864.864 1.296 1.92 1.296 3.168 0 1.248-.432 2.304-1.296 3.168ZM596.133 35V11.864h7.344V35h-7.344Zm23.967.72c-3.776 0-6.784-1.12-9.024-3.36-2.24-2.272-3.36-5.248-3.36-8.928 0-3.68 1.12-6.64 3.36-8.88 2.24-2.24 5.248-3.36 9.024-3.36 3.424 0 6.208.848 8.352 2.544 2.144 1.696 3.36 4 3.648 6.912h-7.344c-.544-2.176-2.08-3.264-4.608-3.264-1.6 0-2.848.528-3.744 1.584-.896 1.056-1.344 2.544-1.344 4.464 0 1.92.448 3.408 1.344 4.464.896 1.056 2.144 1.584 3.744 1.584 2.528 0 4.064-1.024 4.608-3.072h7.344c-.288 2.848-1.504 5.12-3.648 6.816-2.144 1.664-4.928 2.496-8.352 2.496Zm39.869-.72h-8.976l-7.344-10.032V35h-7.344V1.4h7.344v20.112l7.536-9.648h8.64l-9.216 10.944L659.969 35Zm24.213-12.768c0 .96-.064 2.032-.192 3.216h-17.088c.064 1.504.576 2.672 1.536 3.504.96.832 2.256 1.248 3.888 1.248 2.24 0 3.68-.72 4.32-2.16h7.2c-.352 2.272-1.6 4.128-3.744 5.568-2.112 1.408-4.704 2.112-7.776 2.112-3.936 0-7.04-1.088-9.312-3.264-2.272-2.176-3.408-5.184-3.408-9.024 0-3.776 1.136-6.752 3.408-8.928 2.272-2.208 5.296-3.312 9.072-3.312 3.584 0 6.496 1.024 8.736 3.072s3.36 4.704 3.36 7.968Zm-17.28-1.344h10.032c-.032-1.536-.464-2.72-1.296-3.552-.832-.832-2.032-1.248-3.6-1.248s-2.816.448-3.744 1.344c-.896.864-1.36 2.016-1.392 3.456Zm33.532 8.4c1.024 0 1.872-.048 2.544-.144V35c-1.408.256-3.04.384-4.896.384-.832 0-1.568-.048-2.208-.144-.64-.096-1.36-.304-2.16-.624-.8-.352-1.456-.816-1.968-1.392s-.96-1.408-1.344-2.496c-.352-1.088-.528-2.368-.528-3.84v-9.216h-3.648v-5.808h3.648V5h7.344v6.864h5.232v5.808h-5.232v7.68c0 1.568.272 2.624.816 3.168.544.512 1.344.768 2.4.768Zm15.87 6.432c-3.328 0-5.984-.72-7.968-2.16-1.984-1.44-2.976-3.28-2.976-5.52h7.296c0 .8.352 1.456 1.056 1.968.704.512 1.616.768 2.736.768.8 0 1.44-.192 1.92-.576.512-.384.768-.912.768-1.584 0-1.056-.56-1.712-1.68-1.968l-5.664-1.44c-1.888-.48-3.328-1.296-4.32-2.448-.992-1.152-1.488-2.56-1.488-4.224 0-2.176.896-3.936 2.688-5.28 1.792-1.376 4.192-2.064 7.2-2.064 3.328 0 5.872.64 7.632 1.92 1.792 1.28 2.688 3.04 2.688 5.28h-7.248c0-.8-.288-1.424-.864-1.872-.544-.448-1.312-.672-2.304-.672-.8 0-1.44.176-1.92.528-.48.352-.72.816-.72 1.392 0 1.024.656 1.712 1.968 2.064l5.472 1.488c1.824.48 3.248 1.28 4.272 2.4 1.056 1.088 1.584 2.432 1.584 4.032 0 2.4-.912 4.336-2.736 5.808-1.792 1.44-4.256 2.16-7.392 2.16ZM15.168 84.288c1.024 0 1.872-.048 2.544-.144V90c-1.408.256-3.04.384-4.896.384-.832 0-1.568-.048-2.208-.144-.64-.096-1.36-.304-2.16-.624-.8-.352-1.456-.816-1.968-1.392s-.96-1.408-1.344-2.496c-.352-1.088-.528-2.368-.528-3.84v-9.216H.96v-5.808h3.648V60h7.344v6.864h5.232v5.808h-5.232v7.68c0 1.568.272 2.624.816 3.168.544.512 1.344.768 2.4.768Zm27.099 2.976c-2.304 2.304-5.408 3.456-9.312 3.456-3.904 0-7.024-1.152-9.36-3.456-2.336-2.304-3.504-5.248-3.504-8.832 0-3.584 1.168-6.512 3.504-8.784 2.336-2.304 5.456-3.456 9.36-3.456 3.904 0 7.008 1.152 9.312 3.456 2.336 2.272 3.504 5.2 3.504 8.784 0 3.584-1.168 6.528-3.504 8.832Zm-9.312-2.784c1.696 0 3.04-.56 4.032-1.68.992-1.12 1.488-2.576 1.488-4.368 0-1.792-.496-3.248-1.488-4.368s-2.336-1.68-4.032-1.68c-1.728 0-3.088.56-4.08 1.68-.96 1.12-1.44 2.576-1.44 4.368 0 1.792.48 3.248 1.44 4.368.992 1.12 2.352 1.68 4.08 1.68Zm44.358-17.616h7.344V89.28c0 3.584-1.104 6.368-3.312 8.352-2.08 1.792-4.912 2.688-8.496 2.688-3.744 0-6.592-.8-8.544-2.4-1.888-1.6-2.848-3.632-2.88-6.096h7.392c.16 2.08 1.504 3.12 4.032 3.12 2.976 0 4.464-1.728 4.464-5.184v-3.6C75.969 88.72 73.52 90 69.969 90c-2.848 0-4.992-.864-6.432-2.592-1.408-1.728-2.112-4.096-2.112-7.104v-13.44h7.344V79.2c0 3.328 1.36 4.992 4.08 4.992 1.44 0 2.544-.512 3.312-1.536.768-1.056 1.152-2.496 1.152-4.32V66.864Zm33.766 20.4c-2.304 2.304-5.408 3.456-9.312 3.456-3.904 0-7.024-1.152-9.36-3.456-2.336-2.304-3.504-5.248-3.504-8.832 0-3.584 1.168-6.512 3.504-8.784 2.336-2.304 5.456-3.456 9.36-3.456 3.904 0 7.008 1.152 9.312 3.456 2.336 2.272 3.504 5.2 3.504 8.784 0 3.584-1.168 6.528-3.504 8.832Zm-9.312-2.784c1.696 0 3.04-.56 4.032-1.68.992-1.12 1.488-2.576 1.488-4.368 0-1.792-.496-3.248-1.488-4.368s-2.336-1.68-4.032-1.68c-1.728 0-3.088.56-4.08 1.68-.96 1.12-1.44 2.576-1.44 4.368 0 1.792.48 3.248 1.44 4.368.992 1.12 2.352 1.68 4.08 1.68Zm25.342 6.144c-2.752 0-4.864-.816-6.336-2.448-1.472-1.664-2.208-4-2.208-7.008V66.864h7.44v12.672c0 3.264 1.28 4.896 3.84 4.896 2.976 0 4.464-1.712 4.464-5.136V66.864h7.296V90h-7.296v-3.312c-1.376 2.624-3.776 3.936-7.2 3.936ZM147.68 90V66.864h7.344v4.848c.384-1.664 1.168-2.944 2.352-3.84 1.216-.928 2.56-1.392 4.032-1.392.768 0 1.408.064 1.92.192v6.816c-.864-.096-1.6-.144-2.208-.144-4.064 0-6.096 2.576-6.096 7.728V90h-7.344Zm43.89-28.416c-2.24 0-3.36.976-3.36 2.928v2.352h5.376v5.808h-5.376V90h-7.344V72.672h-4.128v-5.808h4.128v-2.256c0-1.696.272-3.136.816-4.32.544-1.216 1.264-2.112 2.16-2.688.896-.576 1.792-.992 2.688-1.248a10.26 10.26 0 0 1 2.832-.384c1.696 0 3.104.176 4.224.528v5.232c-.16 0-.48-.016-.96-.048a7.937 7.937 0 0 0-1.056-.096Zm14.404 29.04c-3.36 0-6.016-1.136-7.968-3.408-1.952-2.272-2.928-5.2-2.928-8.784 0-3.52 1.008-6.432 3.024-8.736 2.016-2.304 4.672-3.456 7.968-3.456 1.632 0 3.088.352 4.368 1.056 1.28.704 2.24 1.664 2.88 2.88v-3.312h7.296V90h-7.296v-3.264c-.64 1.152-1.632 2.096-2.976 2.832-1.312.704-2.768 1.056-4.368 1.056Zm2.112-6.096c1.76 0 3.12-.576 4.08-1.728.96-1.152 1.44-2.608 1.44-4.368 0-1.728-.48-3.168-1.44-4.32-.96-1.152-2.32-1.728-4.08-1.728-1.664 0-3.008.56-4.032 1.68-.992 1.12-1.488 2.576-1.488 4.368 0 1.792.496 3.264 1.488 4.416 1.024 1.12 2.368 1.68 4.032 1.68ZM233.528 90l-9.985-23.136h8.113l5.184 14.544 5.184-14.544h8.16L240.152 90h-6.624Zm38.801-2.736c-2.304 2.304-5.408 3.456-9.312 3.456-3.904 0-7.024-1.152-9.36-3.456-2.336-2.304-3.504-5.248-3.504-8.832 0-3.584 1.168-6.512 3.504-8.784 2.336-2.304 5.456-3.456 9.36-3.456 3.904 0 7.008 1.152 9.312 3.456 2.336 2.272 3.504 5.2 3.504 8.784 0 3.584-1.168 6.528-3.504 8.832Zm-9.312-2.784c1.696 0 3.04-.56 4.032-1.68.992-1.12 1.488-2.576 1.488-4.368 0-1.792-.496-3.248-1.488-4.368s-2.336-1.68-4.032-1.68c-1.728 0-3.088.56-4.08 1.68-.96 1.12-1.44 2.576-1.44 4.368 0 1.792.48 3.248 1.44 4.368.992 1.12 2.352 1.68 4.08 1.68Zm25.342 6.144c-2.752 0-4.864-.816-6.336-2.448-1.472-1.664-2.208-4-2.208-7.008V66.864h7.44v12.672c0 3.264 1.28 4.896 3.84 4.896 2.976 0 4.464-1.712 4.464-5.136V66.864h7.296V90h-7.296v-3.312c-1.376 2.624-3.776 3.936-7.2 3.936ZM308.93 90V66.864h7.344v4.848c.384-1.664 1.168-2.944 2.352-3.84 1.216-.928 2.56-1.392 4.032-1.392.768 0 1.408.064 1.92.192v6.816c-.864-.096-1.6-.144-2.208-.144-4.064 0-6.096 2.576-6.096 7.728V90h-7.344Zm26.554-26.496c-.864.864-1.952 1.296-3.264 1.296-1.312 0-2.4-.432-3.264-1.296-.832-.864-1.248-1.92-1.248-3.168 0-1.28.416-2.352 1.248-3.216.864-.864 1.952-1.296 3.264-1.296 1.312 0 2.4.448 3.264 1.344.864.864 1.296 1.92 1.296 3.168 0 1.248-.432 2.304-1.296 3.168ZM328.524 90V66.864h7.344V90h-7.344Zm25.55-5.712c1.024 0 1.872-.048 2.544-.144V90c-1.408.256-3.04.384-4.896.384-.832 0-1.568-.048-2.208-.144-.64-.096-1.36-.304-2.16-.624-.8-.352-1.456-.816-1.968-1.392s-.96-1.408-1.344-2.496c-.352-1.088-.528-2.368-.528-3.84v-9.216h-3.648v-5.808h3.648V60h7.344v6.864h5.232v5.808h-5.232v7.68c0 1.568.272 2.624.816 3.168.544.512 1.344.768 2.4.768Zm29.499-7.056c0 .96-.064 2.032-.192 3.216h-17.088c.064 1.504.576 2.672 1.536 3.504.96.832 2.256 1.248 3.888 1.248 2.24 0 3.68-.72 4.32-2.16h7.2c-.352 2.272-1.6 4.128-3.744 5.568-2.112 1.408-4.704 2.112-7.776 2.112-3.936 0-7.04-1.088-9.312-3.264-2.272-2.176-3.408-5.184-3.408-9.024 0-3.776 1.136-6.752 3.408-8.928 2.272-2.208 5.296-3.312 9.072-3.312 3.584 0 6.496 1.024 8.736 3.072s3.36 4.704 3.36 7.968Zm-17.28-1.344h10.032c-.032-1.536-.464-2.72-1.296-3.552-.832-.832-2.032-1.248-3.6-1.248s-2.816.448-3.744 1.344c-.896.864-1.36 2.016-1.392 3.456Zm55.905 1.344c0 .96-.064 2.032-.192 3.216h-17.088c.064 1.504.576 2.672 1.536 3.504.96.832 2.256 1.248 3.888 1.248 2.24 0 3.68-.72 4.32-2.16h7.2c-.352 2.272-1.6 4.128-3.744 5.568-2.112 1.408-4.704 2.112-7.776 2.112-3.936 0-7.04-1.088-9.312-3.264-2.272-2.176-3.408-5.184-3.408-9.024 0-3.776 1.136-6.752 3.408-8.928 2.272-2.208 5.296-3.312 9.072-3.312 3.584 0 6.496 1.024 8.736 3.072s3.36 4.704 3.36 7.968Zm-17.28-1.344h10.032c-.032-1.536-.464-2.72-1.296-3.552-.832-.832-2.032-1.248-3.6-1.248s-2.816.448-3.744 1.344c-.896.864-1.36 2.016-1.392 3.456ZM432.137 90l-9.984-23.136h8.112l5.184 14.544 5.184-14.544h8.16L438.761 90h-6.624Zm41.202-12.768c0 .96-.064 2.032-.192 3.216h-17.088c.064 1.504.576 2.672 1.536 3.504.96.832 2.256 1.248 3.888 1.248 2.24 0 3.68-.72 4.32-2.16h7.2c-.352 2.272-1.6 4.128-3.744 5.568-2.112 1.408-4.704 2.112-7.776 2.112-3.936 0-7.04-1.088-9.312-3.264-2.272-2.176-3.408-5.184-3.408-9.024 0-3.776 1.136-6.752 3.408-8.928 2.272-2.208 5.296-3.312 9.072-3.312 3.584 0 6.496 1.024 8.736 3.072s3.36 4.704 3.36 7.968Zm-17.28-1.344h10.032c-.032-1.536-.464-2.72-1.296-3.552-.832-.832-2.032-1.248-3.6-1.248s-2.816.448-3.744 1.344c-.896.864-1.36 2.016-1.392 3.456ZM477.54 90V66.864h7.344v3.36c1.376-2.656 3.872-3.984 7.488-3.984 5.632 0 8.448 3.152 8.448 9.456V90h-7.392V78.096c0-1.984-.32-3.424-.96-4.32-.608-.896-1.648-1.344-3.12-1.344-2.976 0-4.464 1.824-4.464 5.472V90h-7.344Zm40.878-5.712c1.024 0 1.872-.048 2.544-.144V90c-1.408.256-3.04.384-4.896.384-.832 0-1.568-.048-2.208-.144-.64-.096-1.36-.304-2.16-.624-.8-.352-1.456-.816-1.968-1.392s-.96-1.408-1.344-2.496c-.352-1.088-.528-2.368-.528-3.84v-9.216h-3.648v-5.808h3.648V60h7.344v6.864h5.232v5.808h-5.232v7.68c0 1.568.272 2.624.816 3.168.544.512 1.344.768 2.4.768Zm15.87 6.432c-3.328 0-5.984-.72-7.968-2.16-1.984-1.44-2.976-3.28-2.976-5.52h7.296c0 .8.352 1.456 1.056 1.968.704.512 1.616.768 2.736.768.8 0 1.44-.192 1.92-.576.512-.384.768-.912.768-1.584 0-1.056-.56-1.712-1.68-1.968l-5.664-1.44c-1.888-.48-3.328-1.296-4.32-2.448-.992-1.152-1.488-2.56-1.488-4.224 0-2.176.896-3.936 2.688-5.28 1.792-1.376 4.192-2.064 7.2-2.064 3.328 0 5.872.64 7.632 1.92 1.792 1.28 2.688 3.04 2.688 5.28h-7.248c0-.8-.288-1.424-.864-1.872-.544-.448-1.312-.672-2.304-.672-.8 0-1.44.176-1.92.528-.48.352-.72.816-.72 1.392 0 1.024.656 1.712 1.968 2.064l5.472 1.488c1.824.48 3.248 1.28 4.272 2.4 1.056 1.088 1.584 2.432 1.584 4.032 0 2.4-.912 4.336-2.736 5.808-1.792 1.44-4.256 2.16-7.392 2.16Zm21.716-1.632c-.896.928-2.016 1.392-3.36 1.392-1.344 0-2.48-.464-3.408-1.392-.896-.928-1.344-2.032-1.344-3.312 0-1.312.448-2.416 1.344-3.312.928-.928 2.064-1.392 3.408-1.392 1.344 0 2.464.464 3.36 1.392.928.896 1.392 2 1.392 3.312 0 1.28-.464 2.384-1.392 3.312Z" fill="url(#a)"/><defs><linearGradient id="a" x1="0" y1="-8" x2="537.432" y2="383.903" gradientUnits="userSpaceOnUse"><stop stop-color="#197DF1"/><stop offset="1" stop-color="#BA66BD"/></linearGradient></defs></svg>